<?xml version="1.0" standalone="no"?><!DOCTYPE svg PUBLIC "-//W3C//DTD SVG 1.1//EN" "http://www.w3.org/Graphics/SVG/1.1/DTD/svg11.dtd"><svg t="1537794373196" class="icon" style="" viewBox="0 0 1024 1024" version="1.1" xmlns="http://www.w3.org/2000/svg" p-id="4205" xmlns:xlink="http://www.w3.org/1999/xlink" width="140" height="140"><defs><style type="text/css"></style></defs><path d="M512 470.016q18.005333 0 29.994667 11.989333t11.989333 29.994667-11.989333 29.994667-29.994667 11.989333-29.994667-11.989333-11.989333-29.994667 11.989333-29.994667 29.994667-11.989333zM512 704q80 0 136.021333-56.021333t56.021333-136.021333-56.021333-136.021333-136.021333-56.021333-136.021333 56.021333-56.021333 136.021333 56.021333 136.021333 136.021333 56.021333zM512 86.016q176 0 301.013333 125.013333t125.013333 301.013333-125.013333 301.013333-301.013333 125.013333-301.013333-125.013333-125.013333-301.013333 125.013333-301.013333 301.013333-125.013333z" p-id="4206" fill="#707070"></path></svg>